<?xml version="1.0" standalone="no"?>
<!DOCTYPE svg PUBLIC "-//W3C//DTD SVG 20010904//EN"
 "http://www.w3.org/TR/2001/REC-SVG-20010904/DTD/svg10.dtd">
<svg version="1.0" xmlns="http://www.w3.org/2000/svg"
 width="285.000000pt" height="464.000000pt" viewBox="0 0 285.000000 464.000000"
 preserveAspectRatio="xMidYMid meet">
<metadata>
Created by potrace 1.16, written by Peter Selinger 2001-2019
</metadata>
<g transform="translate(0.000000,464.000000) scale(0.100000,-0.100000)"
fill="#000000" stroke="none">
<path d="M1401 4313 c-77 -161 -168 -297 -178 -267 -20 58 -153 236 -168 223
-3 -4 -11 -50 -17 -104 l-12 -96 -25 6 c-48 12 -129 65 -206 135 -116 105
-235 177 -235 142 0 -5 11 -42 25 -83 38 -109 55 -200 55 -292 0 -60 7 -101
24 -152 13 -38 22 -73 20 -77 -8 -13 -150 4 -219 27 -77 26 -208 65 -219 65
-14 0 -5 -28 15 -46 35 -32 67 -95 84 -168 24 -107 62 -181 116 -230 l48 -43
-23 -32 c-60 -80 -162 -132 -295 -147 -34 -4 -61 -11 -61 -18 0 -24 133 -91
202 -102 21 -4 37 -10 36 -15 -2 -4 -25 -22 -53 -41 -49 -33 -95 -88 -95 -115
0 -11 11 -12 53 -6 66 9 283 10 292 1 15 -14 -112 -289 -159 -345 -48 -57 -39
-61 79 -37 42 9 79 14 81 11 3 -3 -20 -22 -50 -43 -31 -22 -54 -43 -53 -49 2
-5 77 -20 166 -31 89 -12 164 -24 168 -27 3 -3 -2 -27 -11 -53 -18 -54 -21
-140 -5 -150 6 -3 23 5 37 19 32 29 100 65 157 82 45 14 76 6 138 -32 35 -22
37 -26 37 -73 0 -27 -4 -51 -8 -54 -5 -3 -104 -34 -221 -69 -116 -35 -213 -66
-215 -68 -12 -13 -469 -937 -527 -1066 -131 -289 -120 -366 66 -443 81 -33
335 -125 569 -206 112 -38 134 -43 162 -34 17 6 40 20 49 30 10 11 31 20 46
20 44 0 74 15 134 70 32 29 61 48 68 44 7 -4 27 -18 45 -31 28 -21 32 -29 27
-53 -6 -29 14 -60 39 -60 28 0 154 109 196 168 57 81 34 168 -68 264 -58 56
-63 58 -114 58 -70 0 -134 -37 -237 -135 l-77 -74 -190 55 c-104 30 -236 70
-294 89 -58 18 -122 36 -142 40 -21 4 -38 11 -38 15 0 34 324 688 357 720 13
13 14 -15 9 -270 -4 -157 -9 -314 -12 -349 -5 -50 -3 -62 8 -59 20 7 26 93 27
432 l1 310 37 72 c21 40 34 76 30 80 -4 4 -11 3 -16 -2 -32 -34 -382 -714
-437 -849 -33 -79 -34 -80 -71 -83 -61 -4 -83 -11 -83 -27 0 -18 -3 -17 38 -6
46 14 132 -2 292 -53 74 -24 179 -56 232 -71 98 -28 113 -40 82 -66 -44 -36
-67 -149 -42 -204 6 -14 9 -27 6 -30 -6 -7 -608 210 -670 241 -64 33 -88 66
-88 124 0 69 22 133 115 329 67 143 481 980 489 989 4 3 399 122 408 122 8 0
-16 -68 -157 -446 l-97 -258 102 -94 c55 -52 100 -100 98 -106 -2 -7 -46 -52
-98 -101 -52 -49 -96 -93 -98 -97 -2 -5 24 -89 59 -188 42 -123 66 -180 76
-180 10 0 13 6 8 18 -4 9 -32 90 -62 180 l-56 163 74 68 c41 37 89 81 108 98
l35 30 -38 46 c-28 35 -147 145 -174 163 -2 1 42 125 98 276 56 150 109 295
119 323 18 48 19 49 24 20 14 -71 28 -793 20 -1028 -7 -227 -5 -282 12 -265
20 20 20 839 0 1212 l-7 139 41 -35 c82 -70 189 -68 268 5 18 16 24 17 28 6 3
-8 8 -243 12 -523 7 -424 10 -510 22 -514 12 -4 13 63 7 459 -4 255 -9 480
-13 499 -10 62 14 21 67 -114 28 -71 78 -189 112 -264 l61 -134 -17 -33 c-10
-18 -42 -64 -72 -101 -30 -38 -57 -75 -60 -82 -8 -17 19 -78 73 -159 31 -47
43 -76 43 -102 0 -32 -81 -574 -96 -644 -4 -19 -2 -27 9 -27 10 0 21 41 41
162 37 231 76 498 76 530 0 16 -14 47 -32 71 -18 24 -46 68 -62 99 l-30 55 47
59 c25 32 61 85 80 117 l35 58 -23 42 c-59 105 -248 570 -234 575 16 6 233
-58 274 -81 46 -26 80 -79 479 -750 284 -478 366 -626 366 -658 0 -18 -8 -13
-52 27 -73 65 -125 87 -199 82 l-59 -3 -68 120 c-72 127 -203 331 -339 530
l-83 120 0 92 c0 55 -4 93 -10 93 -25 0 10 -1470 36 -1512 15 -24 19 17 12
139 -11 210 -28 786 -28 963 l0 164 81 -119 c133 -197 252 -383 314 -494 48
-85 56 -106 47 -120 -64 -87 -67 -115 -18 -166 39 -40 60 -44 78 -15 16 26 28
25 28 -1 0 -12 -14 -34 -30 -49 -35 -33 -39 -66 -9 -75 11 -4 24 -18 29 -31 6
-15 17 -24 31 -24 12 0 23 -8 26 -20 5 -20 36 -35 53 -25 5 3 18 0 29 -7 29
-18 87 17 129 78 l33 47 -4 122 -4 122 -43 79 c-65 119 -261 452 -475 809
-279 464 -287 476 -320 497 -28 17 -159 61 -270 90 l-50 14 -3 49 -3 50 48 25
c26 14 78 55 116 91 53 52 76 68 107 73 57 9 120 62 154 130 26 49 31 72 34
151 3 65 0 108 -12 148 -9 30 -16 58 -16 61 0 12 67 69 103 88 21 10 37 24 34
31 -2 7 -47 35 -101 63 -54 28 -97 55 -97 60 2 18 174 183 207 199 19 9 34 19
34 22 0 17 -41 32 -90 33 l-55 0 63 56 c34 31 60 60 56 65 -3 5 -47 9 -98 9
-123 0 -156 7 -156 33 0 43 94 298 135 369 62 103 79 137 74 143 -9 8 -183
-37 -229 -60 -25 -12 -75 -39 -112 -59 l-68 -37 0 64 c0 122 -21 163 -59 116
l-18 -23 -7 60 c-4 32 -19 92 -32 132 -24 73 -86 182 -103 182 -5 0 -27 -39
-50 -87z m109 -56 c34 -76 50 -149 50 -227 0 -66 10 -75 42 -35 11 14 23 25
28 25 16 0 22 -87 9 -144 -7 -31 -10 -59 -7 -62 3 -3 25 8 49 24 91 61 166
101 224 120 79 26 125 36 125 25 0 -4 -16 -33 -35 -63 -61 -95 -166 -396 -152
-433 7 -19 90 -37 170 -37 l62 0 -69 -63 c-38 -35 -67 -68 -63 -74 4 -7 23 -6
59 3 52 14 88 18 88 10 0 -2 -52 -55 -115 -118 l-116 -113 23 -19 c13 -10 58
-36 101 -57 78 -40 91 -53 59 -63 -10 -3 -34 -22 -54 -42 l-37 -36 -29 20
c-15 11 -43 24 -62 29 l-34 9 3 145 c2 79 4 173 4 209 1 55 -3 73 -26 112 -15
26 -35 53 -45 60 -19 14 -62 106 -62 134 0 9 -34 51 -75 94 -145 148 -288 182
-486 115 -200 -68 -316 -199 -354 -399 -17 -90 -19 -313 -5 -491 l10 -119 -34
-36 c-81 -84 -60 -207 46 -264 24 -13 41 -35 61 -77 15 -33 44 -75 63 -95 20
-19 34 -37 32 -39 -12 -12 -162 -84 -166 -80 -5 4 18 96 33 136 14 37 -48 57
-237 75 -38 4 -68 10 -68 13 0 4 27 26 60 49 33 24 60 47 60 52 0 13 -49 13
-127 -1 -35 -6 -66 -9 -68 -7 -3 2 14 39 36 81 63 121 131 289 120 300 -5 5
-82 7 -175 5 -91 -1 -166 0 -166 3 0 12 59 60 119 97 81 48 87 62 29 62 -50 0
-118 19 -179 51 l-44 22 82 18 c95 21 129 37 185 87 63 57 100 112 87 128 -6
8 -17 14 -23 14 -19 0 -82 71 -105 118 -12 23 -29 75 -37 115 -9 39 -27 92
-40 116 -13 24 -22 46 -19 49 3 3 58 -11 123 -32 98 -31 131 -36 205 -36 53 0
87 4 87 10 0 6 -9 28 -19 48 -30 58 -40 109 -45 222 -5 92 -32 227 -62 304 -6
15 -4 17 7 11 49 -29 110 -76 177 -135 76 -69 170 -125 229 -136 l31 -6 7 68
c4 37 11 79 15 93 6 25 7 25 43 -24 20 -28 51 -78 69 -112 18 -35 38 -63 45
-63 26 0 116 134 189 282 43 88 43 88 94 -25z m-55 -476 c57 -25 115 -62 115
-73 0 -5 -16 -8 -35 -8 -49 0 -94 -21 -134 -64 -19 -20 -40 -36 -46 -36 -6 0
-39 18 -74 41 -78 51 -114 57 -173 32 -89 -40 -170 -142 -147 -185 17 -32 52
-21 103 31 82 83 104 85 187 19 38 -31 99 -45 143 -34 14 3 46 24 71 46 54 47
79 50 156 18 50 -20 79 -42 79 -59 0 -4 -28 -6 -62 -6 -126 2 -213 -64 -239
-179 -16 -69 -2 -120 47 -174 43 -48 110 -75 185 -75 46 0 66 6 108 33 29 17
54 32 57 32 2 0 4 -11 4 -25 0 -34 -61 -92 -106 -101 -20 -4 -58 -4 -86 -1
-59 7 -63 -12 -6 -27 50 -13 123 1 157 30 16 13 32 24 35 24 4 0 6 -21 4 -47
l-3 -48 -64 -7 c-75 -8 -94 -14 -87 -27 3 -5 44 -6 91 -3 156 9 215 -35 235
-177 13 -90 0 -165 -38 -236 -47 -87 -116 -117 -265 -116 -99 1 -140 -6 -134
-22 2 -7 34 -10 90 -8 54 2 87 -1 87 -7 0 -18 -103 -102 -160 -130 -96 -47
-278 -40 -385 15 l-30 16 49 17 c56 18 79 47 30 36 -164 -37 -255 -1 -322 128
-21 41 -26 65 -27 121 0 90 34 163 116 247 33 33 59 64 59 69 0 44 -125 -83
-168 -171 -18 -36 -36 -91 -40 -123 l-7 -57 -36 29 c-45 38 -63 79 -55 126 9
48 58 101 103 112 47 11 59 38 15 31 -39 -6 -39 -6 -52 220 -26 482 67 668
385 764 82 24 202 20 270 -11z m182 -147 c20 -17 39 -36 41 -42 4 -14 -34 -17
-42 -3 -9 15 -94 34 -121 27 -14 -4 -43 -22 -64 -41 -69 -62 -115 -66 -181
-15 -94 73 -141 67 -234 -30 -24 -25 -43 -37 -48 -32 -22 22 52 111 124 148
44 23 95 13 159 -30 66 -44 105 -47 140 -10 46 50 80 65 137 61 39 -3 61 -11
89 -33z m60 -169 c50 -21 72 -42 94 -90 22 -48 25 -135 5 -173 -57 -110 -215
-135 -312 -50 -64 56 -79 118 -50 201 19 52 42 76 101 103 58 28 111 30 162 9z
m-276 -1312 l96 5 1 -40 c2 -53 -25 -90 -90 -122 -83 -41 -134 -31 -210 42
-35 33 -38 40 -38 92 l0 56 73 -19 c55 -14 94 -17 168 -14z m12 -1461 c10 -4
43 -32 73 -62 40 -39 58 -67 69 -104 19 -62 19 -62 -4 -83 -10 -10 -21 -30
-25 -45 -5 -20 -13 -28 -29 -28 -16 0 -26 -9 -34 -30 -7 -19 -18 -30 -31 -30
-11 0 -27 -11 -36 -25 -25 -38 -48 -33 -41 9 6 31 3 36 -41 70 -26 20 -57 36
-69 36 -13 0 -45 -19 -71 -43 -58 -52 -84 -67 -116 -67 -32 0 -48 18 -48 55 0
47 35 103 113 183 133 136 227 189 290 164z m1120 -91 c54 -33 115 -105 127
-150 19 -73 -8 -147 -70 -191 l-31 -22 -6 21 c-6 25 -16 27 -33 6 -19 -23 -45
-14 -45 15 0 25 -5 27 -37 15 -15 -6 -18 -2 -18 23 0 26 -3 29 -25 24 -35 -6
-32 16 6 52 26 24 30 35 25 60 -7 34 -35 77 -54 84 -8 2 -12 -10 -12 -37 0
-47 -12 -52 -47 -19 -32 30 -30 70 8 112 22 26 40 36 67 38 55 4 105 -6 145
-31z m-1499 -111 c5 -5 0 -21 -11 -37 -27 -40 -43 -80 -43 -109 0 -17 -4 -24
-12 -20 -7 2 -30 10 -52 17 -21 7 -40 19 -43 25 -8 22 17 82 48 115 26 28 33
30 67 24 20 -3 41 -10 46 -15z"/>
<path d="M1078 3436 c-130 -35 -192 -165 -137 -286 36 -80 88 -122 165 -135
68 -11 122 10 179 68 100 103 99 219 -1 307 -68 59 -116 70 -206 46z m170 -53
c64 -47 86 -93 80 -163 -6 -64 -49 -126 -109 -158 -35 -19 -54 -23 -95 -19
-74 7 -109 30 -144 90 -82 143 4 282 176 286 33 1 52 -7 92 -36z"/>
<path d="M1615 2828 c-57 -14 -137 -22 -280 -28 -134 -5 -214 -13 -243 -23
-109 -38 -152 -98 -152 -213 0 -89 20 -131 80 -164 62 -34 172 -32 335 5 114
26 257 35 299 19 27 -10 129 16 164 42 19 15 46 51 61 83 22 48 26 69 26 149
0 93 0 94 -33 123 -30 27 -38 29 -105 28 -39 0 -108 -10 -152 -21z"/>
</g>
</svg>
