<?xml version="1.0" standalone="no"?>
<!DOCTYPE svg PUBLIC "-//W3C//DTD SVG 20010904//EN"
 "http://www.w3.org/TR/2001/REC-SVG-20010904/DTD/svg10.dtd">
<svg version="1.0" xmlns="http://www.w3.org/2000/svg"
 width="326.000000pt" height="333.000000pt" viewBox="0 0 326.000000 333.000000"
 preserveAspectRatio="xMidYMid meet">
<metadata>
Created by potrace 1.16, written by Peter Selinger 2001-2019
</metadata>
<g transform="translate(0.000000,333.000000) scale(0.100000,-0.100000)"
fill="#000000" stroke="none">
<path d="M1274 2875 c-57 -13 -114 -33 -196 -68 -32 -15 -38 -15 -48 -2 -7 8
-20 15 -29 15 -17 0 -123 -120 -187 -212 -27 -40 -44 -55 -54 -51 -50 19 -56
16 -80 -38 -59 -139 -88 -450 -56 -609 54 -266 225 -480 477 -600 35 -16 70
-30 77 -30 22 0 13 -18 -51 -102 -58 -77 -143 -196 -209 -293 -30 -44 -34 -65
-17 -82 9 -9 3 -25 -23 -65 -143 -218 -165 -289 -105 -345 65 -64 339 -219
452 -258 28 -9 74 -17 103 -17 62 0 90 20 124 86 11 21 40 60 65 87 55 59 55
85 0 83 -32 -1 -37 2 -37 21 0 28 -59 87 -109 109 -35 16 -39 16 -84 -4 -27
-12 -51 -29 -54 -38 -4 -9 -15 -23 -25 -30 -10 -7 -18 -20 -18 -29 0 -21 -16
-13 -100 48 -46 33 -69 56 -66 65 3 8 24 41 46 74 37 55 42 58 72 54 33 -4 34
-3 153 173 66 97 125 177 130 176 15 -1 82 -180 115 -306 43 -163 60 -281 67
-464 3 -90 10 -163 14 -163 25 0 16 280 -16 466 -30 171 -129 472 -169 512
-14 15 -13 17 -200 -256 -42 -61 -84 -112 -92 -112 -43 0 -207 112 -219 150
-7 22 34 85 203 313 93 125 96 129 126 122 219 -45 406 -23 603 70 118 56 171
92 265 183 75 73 78 75 118 69 24 -3 68 -23 105 -47 124 -81 496 -371 489
-381 -2 -4 -16 -9 -32 -12 -63 -13 -112 -79 -112 -152 0 -19 -2 -35 -5 -35 -3
0 -93 65 -201 145 -107 80 -197 145 -199 145 -15 0 -1 -28 24 -50 25 -21 38
-50 76 -180 45 -152 97 -389 110 -502 3 -32 11 -58 17 -58 30 0 -21 289 -92
535 -23 76 -38 140 -36 143 3 2 85 -55 183 -127 172 -127 179 -131 228 -131
33 0 58 -7 74 -19 l24 -18 -71 -154 c-38 -85 -84 -184 -101 -221 l-32 -68 -36
15 c-49 21 -67 19 -113 -10 -22 -14 -49 -25 -59 -25 -11 0 -36 -13 -54 -30
-19 -16 -39 -30 -45 -30 -19 0 -72 -52 -72 -70 0 -23 13 -27 125 -36 91 -7 94
-15 13 -29 -44 -7 -54 -38 -15 -49 34 -9 194 -7 272 4 84 12 98 25 178 162
112 193 263 500 281 571 13 54 -29 102 -206 236 -59 45 -188 145 -285 222
-209 165 -372 276 -419 285 -19 3 -34 9 -34 13 0 3 16 16 36 29 45 29 68 82
60 136 -19 130 -19 154 2 183 30 43 35 84 17 134 -9 24 -25 81 -35 126 -40
173 -120 315 -245 431 -95 89 -192 147 -318 190 -96 33 -111 35 -252 38 -103
2 -169 -1 -211 -11z m327 -21 c254 -43 470 -195 593 -417 38 -68 72 -161 82
-226 6 -37 5 -41 -15 -41 -25 0 -25 -3 -6 -103 24 -126 19 -172 -16 -131 -16
19 -122 74 -144 74 -28 0 -15 -17 27 -36 121 -55 167 -111 168 -204 0 -75 -49
-120 -130 -120 -49 0 -51 -22 -4 -30 l29 -6 -65 -68 c-249 -262 -639 -357
-957 -232 -99 38 -100 40 -44 55 51 13 80 34 63 45 -6 3 -26 -1 -46 -9 -48
-20 -95 -19 -132 4 -30 18 -64 74 -64 105 0 27 39 95 61 107 15 8 18 14 10 22
-8 8 -14 8 -23 -1 -7 -7 -17 -12 -24 -12 -16 0 -38 56 -30 76 4 11 -8 35 -33
69 -55 73 -74 133 -75 240 0 83 2 95 32 155 19 36 45 80 59 99 25 33 25 34 8
47 -10 8 -22 14 -27 14 -39 0 98 149 196 212 79 51 156 73 334 98 81 11 200
30 265 42 64 11 120 18 123 15 25 -25 -92 -77 -173 -77 -65 0 -74 -5 -48 -24
13 -10 13 -16 0 -51 -17 -49 -19 -134 -4 -186 15 -50 62 -105 110 -129 45 -24
49 -24 49 -7 0 8 -10 18 -23 24 -30 14 -87 62 -87 74 0 5 12 14 26 20 15 5 39
20 54 33 16 13 47 26 71 30 24 4 58 16 76 27 27 17 44 19 103 16 39 -3 73 -7
76 -9 2 -3 -3 -29 -10 -59 -17 -65 -4 -88 19 -33 19 47 21 136 4 194 -16 54
-83 123 -137 141 -20 7 -53 20 -73 31 -35 18 -38 18 -180 -6 -79 -14 -197 -32
-263 -41 -229 -31 -334 -82 -475 -231 -73 -76 -97 -114 -73 -114 5 0 16 -6 26
-13 16 -12 15 -16 -18 -67 -20 -30 -43 -77 -53 -105 -35 -103 -12 -268 48
-349 16 -22 29 -50 29 -63 0 -13 12 -46 26 -74 24 -49 25 -53 10 -90 -9 -22
-13 -52 -10 -71 5 -32 4 -31 -64 39 -80 81 -140 182 -178 298 -49 147 -44 450
10 630 20 67 40 94 57 78 7 -7 19 -13 26 -13 7 0 46 44 86 98 41 53 90 115
109 136 33 38 35 39 59 23 23 -15 28 -15 78 8 165 77 325 99 502 69z m329
-209 c55 -28 93 -73 108 -127 13 -48 6 -52 -69 -44 -50 6 -66 3 -112 -19 -30
-14 -65 -25 -79 -25 -14 0 -42 -14 -63 -30 -47 -37 -84 -48 -96 -29 -14 22
-10 136 6 174 15 37 19 40 76 49 19 4 60 21 90 40 30 19 62 34 72 35 10 1 40
-10 67 -24z m947 -1534 c66 -19 263 -188 263 -226 0 -11 -28 -83 -63 -160
-114 -252 -284 -548 -321 -560 -12 -4 -77 -8 -146 -10 -82 -3 -113 -1 -92 4
41 11 57 25 49 44 -6 17 -51 27 -126 27 -61 0 -101 8 -101 20 0 4 17 15 38 26
20 10 52 31 70 47 18 15 42 27 52 27 21 0 52 15 81 38 13 10 24 9 60 -8 24
-11 49 -20 54 -20 6 0 33 48 60 108 27 59 84 183 127 276 43 93 78 170 78 172
0 2 -6 4 -14 4 -7 0 -19 -13 -26 -30 -7 -16 -14 -30 -16 -30 -2 0 -44 30 -94
66 -96 71 -105 88 -74 133 19 26 72 61 94 61 8 0 30 -4 47 -9z m-1890 -387
c27 -20 58 -41 71 -47 12 -6 22 -13 22 -16 0 -3 -22 -40 -49 -81 -58 -89 -61
-81 66 -167 80 -55 83 -58 83 -95 0 -43 16 -82 30 -73 4 3 5 17 1 32 -8 28 8
124 22 134 5 4 14 17 21 30 6 13 22 26 36 28 14 1 28 8 32 14 14 23 128 -52
128 -84 0 -22 -7 -23 -40 -4 -41 23 -62 19 -54 -10 6 -24 5 -26 -21 -19 -25 6
-27 5 -20 -12 24 -59 14 -82 -20 -44 -16 18 -55 28 -55 15 0 -3 15 -19 33 -35
40 -37 67 -35 81 5 24 68 66 96 66 44 0 -24 21 -24 70 1 48 24 51 14 9 -26
-17 -16 -44 -51 -60 -79 -52 -89 -53 -90 -118 -89 -44 1 -79 11 -148 41 -103
45 -285 147 -355 198 -64 47 -68 69 -26 152 44 89 128 223 139 223 5 0 30 -16
56 -36z"/>
<path d="M1231 2482 c-13 -45 -47 -79 -120 -118 -71 -38 -161 -123 -161 -152
0 -12 4 -22 9 -22 5 0 12 -25 16 -55 9 -72 54 -139 120 -176 63 -35 125 -48
125 -26 0 9 -14 17 -38 21 -47 7 -132 62 -132 85 0 24 144 151 172 151 13 0
50 14 83 30 43 22 74 30 112 30 48 0 53 -2 59 -25 6 -24 3 -57 -12 -142 -8
-44 11 -43 26 2 15 46 16 149 1 201 -24 87 -98 158 -181 172 -39 6 -45 11 -48
35 -5 39 -19 33 -31 -11z m90 -53 c46 -16 97 -55 120 -93 29 -48 25 -56 -28
-56 -32 0 -68 -10 -108 -28 -33 -16 -75 -32 -93 -35 -22 -5 -60 -31 -110 -77
-47 -42 -80 -66 -86 -60 -5 5 -11 42 -14 82 -5 91 5 107 123 178 47 28 93 62
103 75 19 27 43 30 93 14z"/>
<path d="M1770 1947 c-149 -35 -300 -156 -360 -289 -23 -51 -27 -153 -6 -201
46 -109 124 -89 330 85 101 86 133 101 284 132 138 28 190 49 211 86 12 23 12
30 -4 64 -38 80 -142 126 -300 132 -60 2 -122 -1 -155 -9z"/>
</g>
</svg>
