<?xml version="1.0" standalone="no"?>
<!DOCTYPE svg PUBLIC "-//W3C//DTD SVG 20010904//EN"
 "http://www.w3.org/TR/2001/REC-SVG-20010904/DTD/svg10.dtd">
<svg version="1.0" xmlns="http://www.w3.org/2000/svg"
 width="600.000000pt" height="600.000000pt" viewBox="0 0 600.000000 600.000000"
 preserveAspectRatio="xMidYMid meet">
<metadata>
Created by potrace 1.16, written by Peter Selinger 2001-2019
</metadata>
<g transform="translate(0.000000,600.000000) scale(0.100000,-0.100000)"
fill="#000000" stroke="none">
<path d="M3145 3929 c-6 -90 -11 -122 -22 -126 -8 -3 -55 1 -106 10 -51 8 -95
13 -99 11 -4 -3 17 -54 47 -115 49 -97 53 -110 38 -116 -77 -26 -151 -73 -115
-73 11 0 92 -69 92 -78 0 -4 -16 -18 -35 -31 -19 -13 -35 -27 -35 -31 0 -5 23
-22 50 -39 l50 -31 -15 -29 c-8 -17 -19 -33 -25 -36 -21 -13 -8 -24 36 -31 47
-7 49 -9 28 -58 -7 -17 -4 -18 24 -13 27 6 32 4 32 -13 0 -17 3 -18 24 -9 21
10 29 7 60 -17 60 -48 51 -67 -49 -98 l-84 -26 -29 -93 c-16 -50 -51 -176 -78
-279 l-49 -186 -47 -4 c-74 -5 -88 2 -108 54 -10 26 -28 63 -40 83 l-22 36 48
52 c27 29 58 58 70 64 32 18 42 64 40 193 -2 138 -19 184 -93 256 -65 64 -120
87 -218 92 -66 3 -91 0 -139 -18 -72 -28 -142 -90 -181 -162 -26 -47 -28 -60
-26 -137 2 -47 2 -95 2 -106 -5 -74 -3 -79 31 -109 19 -17 54 -52 78 -78 l43
-48 -37 -69 c-20 -38 -36 -76 -36 -85 0 -14 -14 -16 -91 -16 -82 0 -91 -2 -96
-20 -9 -32 -20 -23 -38 30 -9 28 -20 50 -24 50 -4 0 -15 -42 -25 -92 -28 -147
-59 -289 -62 -285 -1 1 -33 198 -69 437 -36 239 -69 446 -74 459 -5 16 -23
-80 -55 -295 -26 -175 -51 -330 -55 -344 -7 -22 -11 -16 -30 48 -12 39 -24 72
-27 72 -3 0 -10 -13 -15 -30 -11 -29 -13 -30 -77 -30 -46 0 -71 -5 -83 -16
-16 -15 -18 -13 -30 28 -7 23 -15 46 -19 51 -3 4 -21 -73 -40 -170 -18 -98
-36 -186 -40 -196 -3 -11 -32 136 -65 325 -32 188 -61 346 -65 350 -3 5 -19
-85 -35 -200 -38 -280 -36 -274 -67 -177 -25 77 -26 79 -33 47 -4 -18 -12 -35
-17 -38 -5 -3 -73 -6 -151 -5 -139 0 -201 -9 -166 -23 9 -4 91 -6 183 -4 l167
3 21 -70 c11 -38 24 -73 28 -78 3 -4 19 82 34 190 15 109 30 205 33 213 3 8
25 -97 49 -235 65 -376 76 -436 80 -433 1 2 19 86 39 188 50 261 44 244 65
185 l17 -50 13 43 13 42 72 0 c39 0 76 5 81 10 8 8 18 -13 34 -67 20 -70 40
-114 40 -87 -1 44 96 623 101 608 4 -11 35 -203 69 -429 33 -225 64 -419 69
-429 5 -13 22 53 51 199 l44 219 22 -50 22 -49 16 38 16 37 89 0 89 0 17 49
c8 27 31 73 49 104 l34 56 -39 31 c-21 17 -46 44 -54 60 -8 16 -27 35 -42 42
l-28 13 -3 128 c-2 108 1 135 17 171 26 60 85 123 145 154 45 24 62 27 141 27
107 -1 157 -20 224 -85 76 -75 89 -126 82 -325 -3 -67 -9 -85 -31 -85 -10 0
-27 -15 -38 -33 -10 -19 -37 -49 -60 -67 l-40 -34 24 -32 c13 -17 37 -62 52
-100 l29 -69 80 -3 c71 -2 82 0 87 15 3 10 19 72 36 138 52 197 111 399 121
411 5 7 45 22 89 35 l80 23 0 34 c0 28 -8 43 -41 72 -27 26 -46 36 -60 33 -13
-4 -19 -1 -17 8 2 10 -5 13 -20 11 -22 -3 -23 -1 -17 27 6 30 5 31 -28 31 -44
0 -49 7 -32 41 23 43 18 57 -22 76 -49 24 -51 38 -9 65 20 13 36 26 36 30 0 4
-22 25 -50 47 l-49 39 23 15 c12 9 42 20 64 27 23 6 42 13 42 16 0 2 -23 50
-51 105 -27 56 -48 103 -45 106 3 3 44 -2 91 -12 47 -9 92 -15 99 -12 9 4 15
39 20 113 4 60 9 111 12 114 9 8 61 -57 106 -132 l40 -68 77 70 c43 39 81 70
86 70 4 0 5 -50 1 -111 l-7 -112 86 5 c47 2 85 2 85 0 0 -9 -63 -107 -91 -143
-16 -20 -29 -42 -29 -48 0 -6 22 -23 50 -39 27 -15 50 -30 50 -34 0 -4 -25
-23 -55 -43 -30 -21 -55 -41 -55 -45 0 -5 18 -24 40 -43 l41 -35 -32 -11 c-18
-6 -40 -11 -50 -11 -24 0 -24 -5 2 -46 l21 -34 -41 0 c-35 0 -41 -3 -41 -21 0
-16 -5 -20 -19 -16 -14 3 -33 -7 -60 -34 -32 -30 -41 -46 -41 -71 0 -33 1 -34
82 -58 66 -20 85 -30 95 -51 10 -21 95 -323 143 -506 l11 -43 94 0 c67 0 95 4
95 12 0 26 17 -11 40 -86 18 -58 26 -73 32 -60 4 11 26 145 48 299 23 154 44
288 48 299 5 11 33 -149 71 -395 35 -228 66 -430 70 -449 9 -44 10 -44 56 185
20 99 39 187 42 195 3 10 12 0 25 -30 l21 -45 16 37 16 38 62 0 c34 0 68 2 76
6 11 4 20 -15 37 -76 13 -44 27 -77 30 -73 4 5 20 100 35 212 18 129 31 197
36 185 4 -10 31 -156 59 -324 28 -168 54 -313 58 -323 5 -12 22 55 47 187 21
113 42 206 45 206 4 0 13 -19 20 -42 l13 -43 14 43 15 42 150 0 c133 0 153 -2
175 -19 53 -42 115 27 65 72 -25 23 -48 21 -73 -4 -26 -26 -27 -26 -201 -28
-121 -1 -137 -3 -140 -18 -3 -11 -12 7 -23 40 -23 71 -22 74 -65 -155 -19 -98
-35 -176 -37 -174 -2 2 -31 160 -64 352 -33 192 -61 350 -63 351 -1 2 -18
-103 -36 -231 -19 -129 -37 -233 -40 -231 -4 2 -15 34 -25 70 -9 36 -21 65
-25 65 -4 0 -10 -13 -13 -30 -6 -29 -8 -30 -67 -30 -47 0 -64 -4 -80 -20 l-20
-20 -9 22 c-39 103 -33 111 -76 -100 -22 -106 -42 -192 -45 -192 -3 0 -36 205
-75 455 -38 250 -72 447 -76 438 -3 -10 -28 -161 -55 -335 -26 -175 -51 -318
-54 -318 -4 0 -15 27 -25 60 -22 72 -31 81 -40 40 -6 -28 -10 -30 -51 -31 -24
-1 -58 -2 -75 -3 -17 0 -34 4 -39 9 -4 6 -31 98 -60 205 -29 107 -63 230 -76
272 l-25 78 -84 26 c-98 30 -106 45 -52 94 31 29 41 31 78 16 13 -6 16 -2 12
18 -5 25 -3 26 41 26 50 0 54 6 30 51 -8 17 -14 32 -12 33 2 1 26 12 53 25
l50 23 -25 17 c-13 9 -35 25 -49 37 l-24 21 34 23 c42 29 89 71 89 81 0 3 -22
16 -49 28 -28 11 -52 25 -55 30 -3 5 16 42 43 82 26 41 58 92 71 113 l24 39
-25 -6 c-13 -4 -59 -10 -103 -14 l-78 -6 5 39 c4 21 9 82 13 134 l6 95 -23
-21 c-13 -11 -57 -49 -97 -83 -40 -35 -74 -62 -76 -60 -2 2 -20 30 -40 62 -37
60 -113 147 -126 147 -5 0 -11 -54 -15 -121z"/>
</g>
</svg>
