<?xml version="1.0" standalone="no"?>
<!DOCTYPE svg PUBLIC "-//W3C//DTD SVG 20010904//EN"
 "http://www.w3.org/TR/2001/REC-SVG-20010904/DTD/svg10.dtd">
<svg version="1.0" xmlns="http://www.w3.org/2000/svg"
 width="800.000000pt" height="600.000000pt" viewBox="0 0 800.000000 600.000000"
 preserveAspectRatio="xMidYMid meet">
<metadata>
Created by potrace 1.16, written by Peter Selinger 2001-2019
</metadata>
<g transform="translate(0.000000,600.000000) scale(0.100000,-0.100000)"
fill="#000000" stroke="none">
<path d="M6101 4863 c-77 -161 -168 -297 -178 -267 -19 57 -153 236 -167 223
-4 -3 -11 -46 -17 -95 -7 -49 -15 -93 -19 -98 -16 -16 -139 57 -220 130 -122
110 -240 182 -240 146 0 -5 9 -35 21 -68 38 -110 59 -218 59 -304 0 -63 7
-103 24 -155 13 -38 22 -74 19 -78 -10 -16 -151 7 -263 43 -153 50 -180 55
-180 37 0 -7 9 -22 21 -33 35 -32 67 -95 84 -168 24 -108 62 -181 117 -231
l49 -44 -47 -52 c-27 -28 -66 -61 -89 -74 -39 -23 -168 -55 -220 -55 -48 0
-24 -32 54 -72 41 -20 94 -40 118 -44 23 -3 43 -9 43 -13 -1 -3 -24 -22 -52
-41 -52 -35 -98 -90 -98 -117 0 -11 11 -12 53 -6 66 9 283 10 292 1 15 -14
-112 -289 -159 -345 -48 -57 -39 -61 79 -37 42 9 78 14 81 12 2 -3 -21 -22
-51 -44 -30 -21 -53 -43 -51 -49 1 -5 63 -18 137 -27 170 -22 199 -27 199 -37
0 -5 -7 -28 -15 -51 -17 -48 -19 -117 -5 -140 8 -12 13 -10 37 12 32 30 101
66 158 83 45 14 76 7 138 -32 37 -23 38 -25 35 -76 l-3 -52 -218 -66 c-120
-37 -220 -69 -222 -70 -12 -13 -520 -1046 -558 -1135 -34 -81 -48 -129 -52
-180 -12 -140 10 -153 601 -359 266 -92 276 -94 329 -46 11 10 39 21 63 24 30
4 56 17 88 44 96 80 85 76 133 41 36 -26 41 -34 36 -58 -4 -19 -1 -33 10 -44
23 -23 37 -20 80 14 21 17 42 30 47 30 4 0 13 11 19 24 6 13 19 26 29 29 9 2
31 25 48 51 58 86 38 170 -66 268 -57 54 -64 58 -109 58 -70 0 -139 -38 -236
-130 l-83 -78 -189 54 c-105 30 -237 70 -295 88 -58 19 -120 37 -137 41 -18 3
-35 10 -38 15 -3 4 11 46 30 92 53 125 310 621 324 626 10 3 12 -50 7 -269 -4
-151 -9 -305 -12 -343 -4 -54 -3 -67 8 -64 20 7 26 100 27 440 l1 307 35 64
c36 65 42 87 26 87 -19 0 -378 -687 -447 -855 -33 -79 -34 -80 -71 -83 -61 -4
-83 -11 -83 -28 0 -11 6 -13 23 -8 38 13 122 5 204 -20 303 -90 429 -129 432
-132 2 -2 -8 -21 -23 -42 -44 -65 -58 -144 -34 -197 6 -14 9 -27 6 -30 -4 -5
-303 100 -555 194 -168 62 -203 92 -203 171 0 67 22 131 107 313 59 127 489
995 497 1004 3 4 399 123 408 123 8 0 -15 -64 -157 -446 l-96 -257 101 -95
c55 -52 100 -100 98 -106 -2 -7 -46 -52 -98 -101 -52 -49 -96 -93 -98 -97 -2
-4 25 -88 59 -188 42 -124 66 -180 76 -180 10 0 13 6 8 18 -14 35 -115 335
-115 341 0 3 47 49 105 101 58 52 105 99 105 104 0 5 -47 55 -104 110 l-104
102 116 316 c74 198 119 310 123 299 15 -38 30 -809 22 -1046 -9 -214 -6 -271
12 -253 20 20 20 860 0 1222 l-7 130 41 -36 c82 -70 188 -68 268 5 18 16 24
17 28 6 3 -8 8 -243 12 -523 7 -423 10 -510 22 -514 12 -4 13 65 7 469 -4 261
-10 484 -13 497 -3 12 -1 22 3 22 5 -1 33 -62 63 -138 29 -75 80 -197 114
-271 l60 -133 -17 -33 c-10 -18 -42 -64 -72 -101 -30 -38 -57 -75 -60 -82 -9
-17 20 -79 74 -160 l44 -67 -6 -70 c-6 -68 -82 -567 -93 -612 -4 -17 -1 -23
11 -23 9 0 16 2 16 5 0 3 20 134 45 293 24 158 47 317 51 353 6 64 5 67 -27
110 -19 24 -47 69 -63 100 l-30 56 48 62 c27 35 63 87 80 116 l32 53 -47 98
c-69 141 -219 518 -208 522 16 6 233 -58 274 -81 45 -25 92 -99 478 -750 293
-492 355 -602 364 -647 l6 -35 -54 49 c-75 68 -126 89 -201 84 l-59 -4 -26 49
c-43 86 -161 274 -315 503 l-148 221 0 92 c0 54 -4 91 -10 91 -29 0 11 -1487
41 -1514 9 -8 10 27 5 149 -16 431 -27 873 -24 985 l3 125 141 -210 c154 -230
256 -395 286 -463 20 -43 20 -44 0 -65 -52 -58 -55 -102 -8 -151 37 -40 71
-47 81 -16 9 27 25 25 25 -3 0 -14 -12 -32 -30 -45 -36 -27 -41 -67 -9 -77 11
-4 24 -18 29 -31 6 -15 17 -24 31 -24 12 0 23 -8 26 -20 6 -22 32 -34 56 -25
8 4 18 2 22 -4 19 -31 103 19 140 84 22 37 24 51 23 153 0 100 -3 118 -28 170
-45 95 -672 1153 -760 1282 -44 65 -77 83 -231 126 -52 14 -105 29 -119 33
-22 7 -25 14 -28 57 l-3 49 47 24 c25 14 77 55 115 92 54 52 76 68 108 73 58
9 120 62 155 130 26 49 31 72 34 151 3 67 0 108 -13 150 l-16 58 37 38 c21 21
53 46 71 54 19 9 32 22 30 28 -2 7 -50 36 -106 66 l-103 53 93 94 c51 52 108
101 126 109 18 9 33 20 33 25 0 17 -39 30 -92 30 l-53 0 63 56 c34 31 60 60
56 65 -3 5 -51 9 -107 9 -121 0 -147 6 -147 31 0 10 20 81 46 157 40 122 66
179 150 319 10 17 16 34 13 37 -9 9 -197 -41 -238 -63 -20 -10 -66 -35 -103
-55 l-68 -37 0 64 c0 122 -21 163 -59 116 l-18 -23 -7 58 c-10 78 -32 149 -68
221 -30 60 -55 95 -68 95 -4 0 -26 -39 -49 -87z m101 -40 c41 -91 58 -161 58
-243 0 -34 4 -60 10 -60 6 0 23 14 39 32 l28 32 7 -47 c4 -26 2 -72 -5 -107
-13 -67 -8 -81 18 -58 77 69 374 197 373 161 0 -4 -16 -33 -35 -63 -61 -95
-166 -396 -152 -433 7 -19 90 -37 170 -37 l62 0 -70 -64 c-38 -35 -67 -67 -63
-71 4 -4 35 -2 68 4 33 7 64 10 69 6 5 -3 -42 -55 -105 -117 -93 -91 -112
-114 -102 -125 7 -8 52 -35 100 -59 78 -39 108 -64 78 -64 -6 0 -30 -18 -55
-41 l-44 -41 -29 20 c-15 11 -43 24 -62 29 l-33 9 2 144 c2 80 3 174 4 210 1
71 -23 132 -65 167 -23 18 -55 79 -63 120 -6 36 -20 55 -92 125 -141 138 -271
166 -473 102 -175 -55 -290 -170 -345 -344 -23 -74 -31 -353 -16 -530 l12
-133 -35 -36 c-22 -23 -39 -54 -46 -83 -11 -43 -10 -52 11 -95 16 -32 39 -58
70 -78 34 -22 52 -45 73 -88 15 -32 45 -76 66 -97 l38 -38 -46 -18 c-26 -9
-64 -28 -85 -41 -22 -14 -41 -22 -45 -19 -5 5 16 94 33 137 14 37 -48 57 -237
75 -38 4 -68 10 -68 13 0 3 27 26 60 49 33 24 60 48 60 53 0 12 -50 11 -127
-2 -35 -6 -66 -9 -68 -7 -3 2 14 39 36 81 63 121 131 289 120 300 -5 5 -82 7
-175 5 -91 -1 -166 0 -166 3 0 12 66 65 128 103 34 21 62 41 62 45 0 5 -30 11
-67 14 -43 4 -89 17 -132 38 l-66 31 84 19 c46 10 102 29 125 43 43 25 125
106 145 144 10 19 8 23 -16 36 -70 36 -124 123 -149 239 -9 39 -29 95 -45 124
-16 29 -23 50 -16 48 213 -69 238 -75 327 -75 56 0 90 4 90 10 0 6 -9 28 -19
48 -28 55 -43 118 -42 181 0 82 -17 189 -44 278 -13 42 -23 78 -21 80 7 7 99
-61 174 -129 82 -75 177 -132 239 -144 l31 -6 7 68 c14 127 15 127 67 53 25
-35 58 -89 73 -119 l28 -55 37 43 c42 46 98 138 154 250 20 39 40 72 45 72 4
0 24 -35 43 -77z m-81 -479 c30 -9 79 -33 109 -53 l55 -36 -55 -6 c-66 -7 -84
-16 -129 -63 -19 -20 -40 -36 -46 -36 -6 0 -40 19 -76 42 -82 55 -132 58 -204
13 -66 -41 -117 -108 -113 -149 5 -53 40 -47 107 17 85 81 95 82 188 11 35
-27 54 -34 89 -34 52 0 75 10 127 56 45 41 71 42 151 10 53 -22 75 -39 76 -57
0 -4 -28 -6 -62 -6 -84 1 -160 -32 -199 -85 -110 -153 -11 -340 182 -342 58
-1 72 3 118 32 29 17 54 32 57 32 2 0 4 -11 4 -25 0 -34 -61 -92 -106 -101
-20 -4 -58 -4 -85 -1 -53 7 -66 -7 -23 -23 53 -21 138 -6 180 31 30 28 35 24
32 -28 l-3 -48 -64 -7 c-73 -8 -91 -13 -91 -27 0 -5 40 -7 98 -4 86 5 102 3
139 -15 53 -27 79 -71 93 -155 13 -86 1 -170 -37 -239 -48 -90 -110 -118 -263
-118 -104 0 -143 -7 -137 -23 2 -7 34 -10 90 -8 52 1 87 -1 87 -7 0 -12 -67
-73 -117 -106 -109 -72 -266 -77 -413 -13 l-45 19 49 17 c55 19 79 49 30 37
-16 -4 -57 -10 -92 -13 -116 -10 -205 57 -247 185 -35 105 1 215 106 324 32
35 59 66 59 70 0 44 -133 -94 -172 -178 -16 -34 -31 -84 -35 -113 -3 -28 -10
-51 -15 -51 -18 0 -77 66 -84 94 -16 64 33 142 100 161 38 11 44 30 9 30 -29
-1 -31 9 -43 223 -16 293 8 448 90 570 105 156 354 248 531 196z m187 -143
c72 -37 97 -89 29 -62 -104 42 -124 40 -191 -18 -70 -61 -116 -63 -182 -8 -85
71 -125 66 -225 -30 -28 -27 -49 -41 -53 -34 -17 26 56 111 126 147 44 23 95
13 159 -30 66 -44 105 -47 140 -10 59 65 128 80 197 45z m89 -186 c21 -9 46
-23 57 -33 54 -48 74 -178 36 -239 -61 -101 -214 -121 -306 -41 -65 57 -79
114 -49 199 20 56 40 77 100 105 58 28 111 30 162 9z m-274 -1312 l97 5 0 -40
c0 -24 -8 -51 -20 -68 -24 -34 -112 -80 -152 -80 -40 0 -99 32 -136 75 -27 30
-32 44 -32 89 l0 52 73 -19 c56 -14 94 -17 170 -14z m79 -1520 c44 -43 62 -71
73 -107 19 -62 19 -62 -4 -83 -10 -10 -21 -30 -25 -45 -5 -20 -13 -28 -29 -28
-15 0 -26 -10 -35 -30 -8 -16 -21 -30 -29 -30 -8 0 -24 -11 -35 -25 -29 -37
-50 -33 -43 9 6 31 3 36 -41 70 -26 20 -57 36 -69 36 -12 0 -42 -17 -66 -38
-65 -57 -91 -72 -119 -72 -54 0 -65 52 -28 127 30 60 200 222 269 257 77 39
108 32 181 -41z m1044 -29 c57 -32 121 -105 134 -153 19 -73 -8 -147 -70 -191
l-31 -22 -6 21 c-6 25 -16 27 -33 6 -19 -23 -45 -14 -45 15 0 25 -5 27 -37 15
-15 -6 -18 -2 -18 24 0 28 -2 31 -25 25 -35 -9 -33 14 5 49 36 34 37 47 9 104
-26 53 -49 57 -49 9 0 -45 -16 -54 -46 -25 -33 31 -31 70 7 113 44 51 126 55
205 10z m-1492 -114 c5 -5 0 -21 -11 -37 -27 -40 -43 -80 -43 -109 0 -21 -3
-24 -22 -18 -56 17 -88 36 -88 49 0 27 28 84 55 111 22 22 32 25 63 19 20 -4
41 -10 46 -15z"/>
<path d="M5778 3986 c-130 -35 -192 -165 -137 -286 41 -91 102 -133 194 -134
88 0 161 47 201 133 42 89 24 174 -52 241 -68 59 -116 70 -206 46z m170 -53
c65 -53 84 -90 80 -156 -8 -110 -101 -194 -204 -184 -74 7 -109 30 -144 90
-82 144 11 293 178 283 40 -2 61 -9 90 -33z"/>
<path d="M6290 3374 c-82 -18 -135 -23 -240 -24 -238 0 -341 -32 -387 -120
-30 -56 -32 -168 -4 -220 49 -94 187 -109 426 -48 65 16 101 19 193 15 191 -8
252 17 300 122 36 79 42 202 13 249 -12 18 -33 37 -47 42 -41 16 -141 10 -254
-16z"/>
<path d="M2754 3456 c-50 -13 -114 -36 -142 -50 -49 -25 -54 -25 -77 -10 -15
10 -29 13 -39 7 -20 -11 -95 -99 -163 -191 -47 -62 -57 -71 -73 -62 -34 18
-47 10 -70 -42 -59 -138 -88 -449 -56 -608 54 -266 225 -480 477 -600 35 -16
70 -30 77 -30 21 0 13 -19 -37 -83 -87 -111 -251 -350 -251 -367 0 -9 5 -21
11 -27 9 -9 -1 -30 -37 -85 -54 -82 -119 -209 -128 -250 -12 -52 79 -126 294
-241 205 -109 322 -136 376 -86 14 13 35 42 46 63 11 21 40 60 65 87 55 59 55
85 0 83 -32 -1 -37 2 -37 21 0 26 -70 94 -116 113 -26 11 -37 10 -77 -7 -26
-11 -50 -28 -54 -38 -4 -10 -15 -24 -25 -31 -10 -7 -18 -20 -18 -28 0 -8 -3
-14 -6 -14 -9 0 -154 101 -160 112 -3 5 15 40 40 78 43 65 47 69 78 64 33 -5
34 -4 148 166 63 95 121 176 127 182 15 12 37 -35 90 -190 64 -191 103 -435
103 -643 0 -104 14 -132 25 -51 7 51 -8 285 -25 392 -33 203 -149 545 -185
543 -5 -1 -65 -81 -132 -179 -68 -99 -129 -183 -137 -188 -28 -19 -197 84
-226 138 -12 23 -8 32 56 123 37 54 106 149 153 211 82 110 86 114 115 107
218 -44 407 -23 603 70 118 56 171 92 265 183 75 73 78 75 119 69 60 -8 184
-93 472 -324 100 -80 125 -104 110 -108 -83 -25 -125 -72 -133 -147 l-5 -51
-198 147 c-109 80 -200 146 -203 146 -14 0 0 -30 21 -44 31 -20 34 -29 91
-225 40 -141 83 -342 99 -463 3 -26 10 -50 16 -53 31 -20 -18 272 -86 510 -25
87 -43 160 -41 163 3 2 83 -53 178 -124 166 -123 175 -128 229 -132 31 -2 65
-12 78 -22 l24 -17 -73 -159 c-40 -87 -86 -187 -102 -222 l-28 -62 -36 15
c-50 21 -68 19 -114 -10 -22 -14 -49 -25 -59 -25 -11 0 -36 -13 -54 -30 -19
-16 -39 -30 -45 -30 -20 0 -72 -52 -72 -71 0 -10 1 -19 3 -20 1 0 49 -6 107
-13 81 -10 98 -14 75 -20 -65 -15 -80 -22 -83 -37 -2 -10 6 -19 20 -23 35 -9
195 -7 273 4 83 12 97 24 176 157 75 126 221 417 259 513 27 72 30 87 20 111
-16 37 -80 96 -220 202 -63 47 -189 145 -280 217 -202 161 -358 267 -405 276
-19 3 -35 9 -35 13 1 3 18 18 40 33 52 36 68 87 52 167 -17 80 -15 119 7 149
29 42 34 83 16 133 -9 24 -25 81 -35 126 -40 174 -120 315 -247 433 -95 89
-195 148 -321 190 -89 31 -109 34 -247 37 -133 3 -160 1 -241 -21z m404 -21
c266 -56 508 -267 596 -520 13 -39 27 -89 31 -112 6 -40 5 -43 -15 -43 -20 0
-22 -4 -17 -32 21 -116 27 -157 27 -187 0 -33 0 -33 -22 -17 -38 27 -136 76
-153 76 -30 0 -14 -16 41 -44 115 -56 154 -107 154 -199 0 -72 -50 -117 -129
-117 -48 0 -63 -17 -24 -26 15 -3 32 -7 38 -8 5 -2 -19 -33 -55 -70 -209 -219
-510 -322 -799 -275 -65 10 -176 45 -225 71 l-27 14 50 13 c51 13 80 34 63 45
-6 3 -26 -1 -46 -9 -48 -20 -95 -19 -132 4 -31 19 -64 74 -64 107 0 25 46 100
66 108 13 5 15 9 6 18 -9 9 -15 9 -24 0 -20 -20 -33 -14 -50 22 -12 24 -13 37
-6 44 8 8 0 26 -29 65 -50 65 -72 126 -79 220 -8 87 13 156 76 249 38 58 40
63 24 75 -10 7 -21 13 -26 13 -23 0 0 34 75 107 141 139 206 168 455 203 81
12 200 30 265 42 65 11 120 18 123 15 25 -25 -92 -77 -173 -77 -65 0 -74 -5
-48 -24 13 -10 13 -16 0 -51 -17 -49 -19 -134 -4 -186 15 -50 62 -105 110
-129 46 -24 49 -24 49 -6 0 8 -9 18 -21 21 -24 8 -89 63 -89 76 0 5 15 15 34
23 19 8 43 23 54 34 10 10 39 22 63 26 23 4 58 16 77 28 29 18 42 19 107 13
75 -7 75 -7 69 -33 -3 -15 -10 -40 -16 -55 -8 -20 -8 -31 0 -39 30 -30 54 140
31 219 -13 48 -64 108 -109 130 -14 6 -51 23 -82 37 l-56 26 -114 -20 c-62
-11 -165 -26 -228 -35 -280 -37 -364 -72 -505 -206 -92 -89 -130 -139 -109
-146 6 -2 19 -9 28 -16 16 -12 15 -17 -18 -67 -51 -78 -70 -141 -69 -230 1
-92 30 -185 72 -239 18 -23 27 -42 21 -46 -6 -4 2 -30 21 -67 30 -58 30 -61
15 -99 -10 -23 -13 -51 -10 -71 l7 -33 -48 45 c-101 97 -178 231 -215 374 -37
146 -22 445 30 594 24 66 35 81 52 64 23 -23 38 -12 111 86 41 53 90 115 109
136 34 39 34 39 60 22 25 -17 28 -16 75 7 58 30 174 66 246 78 69 11 215 3
305 -16z m282 -200 c55 -28 93 -73 108 -127 13 -48 6 -52 -69 -44 -50 6 -66 3
-112 -19 -30 -14 -64 -25 -76 -25 -26 0 -55 -14 -82 -41 -26 -26 -69 -35 -80
-18 -14 22 -10 136 6 174 15 37 19 40 76 49 19 4 60 21 90 40 30 19 62 34 72
35 10 1 40 -10 67 -24z m947 -1534 c37 -11 169 -110 227 -169 48 -51 47 -57
-34 -232 -120 -259 -269 -518 -312 -541 -14 -8 -71 -14 -148 -16 -84 -1 -114
1 -92 6 41 11 57 25 49 44 -7 18 -52 27 -132 27 -102 0 -120 14 -57 46 20 10
52 31 70 47 18 15 42 27 52 27 20 0 52 15 81 37 12 10 25 9 67 -9 28 -12 54
-20 56 -17 5 5 233 501 247 537 14 35 -16 28 -31 -8 -7 -16 -14 -30 -16 -30
-3 0 -45 30 -94 67 -95 71 -104 88 -74 132 19 26 72 61 94 61 8 0 29 -4 47 -9z
m-1890 -387 c27 -20 58 -41 71 -47 12 -6 22 -13 22 -16 0 -3 -22 -40 -50 -81
-58 -88 -61 -80 67 -167 l83 -57 0 -45 c0 -25 4 -52 9 -60 14 -22 30 -4 22 26
-8 28 8 124 22 134 5 4 14 17 21 30 7 15 21 24 34 24 13 0 27 7 31 14 11 17
38 8 90 -29 24 -18 41 -38 41 -50 0 -25 -2 -25 -49 0 -43 22 -53 18 -45 -17 6
-22 4 -23 -21 -17 -25 6 -27 5 -20 -12 24 -59 14 -82 -20 -44 -16 18 -55 28
-55 15 0 -3 15 -19 33 -35 40 -37 67 -35 81 5 24 68 66 96 66 44 0 -24 21 -24
70 1 48 24 51 14 9 -26 -17 -16 -45 -53 -61 -82 -44 -76 -72 -95 -131 -88 -83
9 -356 144 -489 241 -64 47 -68 69 -26 152 44 89 128 223 139 223 5 0 30 -16
56 -36z"/>
<path d="M2741 3072 c-13 -46 -47 -79 -121 -118 -70 -37 -160 -123 -160 -152
0 -12 5 -22 10 -22 6 0 10 -10 10 -23 0 -51 31 -128 67 -163 42 -42 132 -87
165 -82 36 5 23 21 -26 33 -56 15 -126 60 -126 82 0 26 140 153 170 153 14 0
52 14 85 30 43 22 74 30 112 30 48 0 53 -2 59 -26 6 -24 2 -73 -12 -141 -9
-45 11 -43 26 2 15 46 16 149 1 201 -24 87 -98 158 -181 172 -39 6 -45 11 -48
35 -5 39 -19 33 -31 -11z m90 -53 c46 -16 97 -55 120 -93 29 -48 25 -56 -28
-56 -32 0 -68 -10 -108 -28 -33 -16 -75 -32 -93 -35 -22 -5 -60 -31 -110 -77
-51 -46 -80 -66 -87 -59 -5 5 -11 42 -13 82 -5 90 8 110 120 174 44 26 89 59
101 74 24 31 47 35 98 18z"/>
<path d="M3275 2537 c-149 -39 -296 -159 -355 -289 -23 -51 -27 -153 -6 -201
45 -108 125 -88 325 82 106 89 137 104 289 135 138 28 190 49 211 86 12 23 12
30 -4 64 -39 81 -142 126 -305 132 -66 2 -124 -1 -155 -9z"/>
</g>
</svg>
